<svg width="80" height="79" fill="none" xmlns="http://www.w3.org/2000/svg"><path d="M46.64 21.923l11.883-10.745-4.838 15.272-.739 2.332 2.414-.4 15.805-2.614-12.327 10.231-1.882 1.563 2.246.969 14.71 6.345-15.901 1.943-2.429.297 1.366 2.03 8.944 13.29-14.427-6.962-2.204-1.063.052 2.446.34 16.016-8.374-13.657L40 57.13l-1.279 2.086-8.373 13.657.339-16.016.052-2.446-2.204 1.063-14.428 6.962 8.945-13.29 1.366-2.03-2.429-.297-15.9-1.943 14.709-6.345 2.246-.969L21.162 36 8.835 25.768l15.805 2.615 2.414.399-.739-2.332-4.838-15.272L33.36 21.923l1.815 1.64.64-2.36L40 5.738l4.187 15.463.64 2.362 1.814-1.641z" stroke="#EEDB6D" stroke-width="3"/></svg>